<?xml version="1.0" encoding="UTF-8" standalone="no"?>
<!DOCTYPE svg PUBLIC "-//W3C//DTD SVG 1.1//EN" "http://www.w3.org/Graphics/SVG/1.1/DTD/svg11.dtd">
<svg width="100%" height="100%" viewBox="0 0 1280 1280" version="1.1" xmlns="http://www.w3.org/2000/svg" xmlns:xlink="http://www.w3.org/1999/xlink" xml:space="preserve" xmlns:serif="http://www.serif.com/" style="fill-rule:evenodd;clip-rule:evenodd;stroke-linecap:round;stroke-linejoin:round;stroke-miterlimit:1.5;">
    <g id="Layer1">
        <path d="M108.092,452.317L108.092,334.575C107.141,329.025 269.295,337.007 269.443,334.575C270.028,324.888 269.443,191.803 269.443,191.803L393.946,191.803L393.946,340.575L1012.33,356.603L1186.59,209.357L1216.4,246.019L1027.72,402.859L1012.33,948.362L1170.98,948.362L1170.98,1067.96L1012.33,1067.96C1012.33,1067.96 1013.3,1147.11 1015.33,1208.96C1015.6,1217.37 871.925,1212.96 871.925,1212.96L871.925,1062.96L269.443,1067.96L269.443,452.317L108.092,452.317Z"/>
    </g>
    <g id="Layer2">
        <path d="M311.263,757.581L113.963,802.787L195.052,846.777L156.237,936.62L239.878,910.375L219.765,974.225L289.678,929.852L339.93,978.955L376.838,903.092L549.739,761.289C602.078,750.199 649.219,710.595 692.509,649.869L896.522,463.071L863.953,464.201L851.604,484.13L851.307,454.869C867.778,367.027 870.483,293.505 844.599,249.721C800.097,207.226 744.169,177.258 672.334,164.73C651.809,161.579 629.314,162.99 603.31,172.526C545.015,150.05 489.005,158.302 457.796,190.984C423.735,226.652 434.535,270.952 451.542,311.777L404.869,396.577C357.262,407.008 313.273,411.775 295.113,431.62C273.366,455.386 277.509,510.03 290.192,539.599L308.005,553.005L400.294,567.706C394.483,605.604 394.465,637.185 392.879,680.581L311.263,757.581Z" style="fill:rgb(38,82,0);"/>
        <path d="M415.784,943.319L907.965,515.158L907.299,569.136L895.777,546.504L877.591,562.357L937.692,636.394L1168.96,637.605L1101.09,713.458L1162.77,790.078L1091.38,787.143L1118.46,869.643L963.554,814.085L881.951,867.213L879.077,943.319L415.784,943.319Z" style="fill:rgb(38,82,0);"/>
    </g>
    <g id="Layer3">
        <path d="M508.493,865.427C530.766,903.259 557.341,925.778 582.586,942.788L731.832,943.175C807.998,891.946 803.529,803.877 730.244,677.831L508.493,865.427Z" style="fill:rgb(68,77,0);"/>
        <path d="M869.588,848.332C898.247,808.238 926.863,768.679 954.398,742.321C976.794,760.924 996.283,784.837 1014.02,811.942L969.138,790.31L869.588,848.332Z" style="fill:rgb(68,77,0);"/>
    </g>
    <g id="Layer4">
        <path d="M162.148,808.862L225.981,841.659L186.7,911.638L287.487,862.31L339.252,939.201L361.091,847.576L375.252,876.972L520.632,760.19C481.849,751.328 444.79,736.246 411.487,707.618L316.846,778.399L162.148,808.862Z" style="fill:rgb(58,116,0);"/>
        <path d="M520.632,888.961L494.023,915.644L509.903,939.201L579.273,939.201L520.632,888.961Z" style="fill:rgb(58,116,0);"/>
        <path d="M731.836,942.201L865.413,939.201L862.265,888.961L844.537,875.232L868.58,799.628L829.945,728.998C866.255,731.313 894.158,735.709 911.263,742.779L868.58,851.623C907.678,798.55 944.355,748.515 990.018,718.69C1012.86,703.771 1105.33,666.442 1127.23,655.315C1128.69,654.573 920.69,657.836 920.69,657.836C829.652,687.972 778.694,716.237 764.658,742.779C799.776,834.249 790.216,901.472 731.836,942.201Z" style="fill:url(#_Linear1);stroke:url(#_Linear2);stroke-width:1px;"/>
        <path d="M694.096,646.737L756.414,519.06C687.072,534.2 625.043,539.603 545.965,545.166L468.638,543.42C476.822,522.164 478.065,503.966 468.638,490.466L438.627,458.133L520.632,496.883L494.023,467.487L555.257,480.654C538.126,449.277 478.4,423.109 397.893,430.68C413.691,423.111 439.162,414.696 481.961,411.899C521.098,424.722 559.463,440.676 605.158,466.185C594.475,434.183 563.645,405.748 458.023,396.321C501.774,380.26 571.165,379.669 632.191,436.506C609.995,387.053 558.152,357.657 465.924,373.034C478.803,361.287 496.297,351.131 520.461,336.917L482.627,333.159C482.627,333.159 505.399,302.916 506.658,303.516C522.93,311.266 589.6,331.44 677.683,390.862C655.146,349.98 626.198,331.374 606.171,318.24L694.528,328.862C682.942,309.79 680.853,275.646 691.132,255.638C712.684,213.692 765.8,203.968 798.632,222.732C815.497,232.37 829.42,244.707 839.414,262.133C866.741,309.787 853.961,386.583 835.934,466.185L834.427,518.347L694.096,646.737Z" style="fill:url(#_Linear3);"/>
        <path d="M864.74,579.201L768.591,655.14L764.586,681.201C794.111,655.828 838.088,635.864 896.601,621.341L864.74,579.201Z" style="fill:url(#_Linear4);"/>
        <path d="M415.05,570.104L454.222,572.13C449.235,609.564 446.019,668.935 455.67,684.063C466.479,701.005 521.594,709.272 552.795,705.37C591.511,700.529 617.926,675.274 655.946,644.172C628.822,693.982 605.348,726.855 551.384,734.766C509.719,740.874 438.058,703.396 425.925,683.459C414.342,664.423 410.466,616.063 415.05,570.104Z" style="fill:rgb(55,121,0);"/>
        <path d="M669.685,737.189L722.884,712.908L717.673,696.931L669.685,737.189Z" style="fill:rgb(125,120,7);"/>
        <g transform="matrix(0.993689,-0.112168,0.112168,0.993689,-25.1266,82.9723)">
            <path d="M717.695,371.646L717.962,371.681L718.229,371.718L718.495,371.758L718.761,371.802L719.027,371.848L719.293,371.897L719.558,371.948L719.824,372.003L720.089,372.06L720.354,372.12L720.618,372.183L720.883,372.248L721.147,372.316L721.411,372.386L721.674,372.459L721.938,372.535L722.201,372.613L722.464,372.693L722.726,372.776L722.989,372.861L723.25,372.949L723.512,373.039L723.773,373.131L724.034,373.226L724.294,373.323L724.554,373.422L724.814,373.524L725.073,373.627L725.331,373.733L725.589,373.841L725.848,373.952L726.105,374.064L726.362,374.178L726.618,374.295L726.874,374.414L727.129,374.534L727.384,374.657L727.639,374.782L727.893,374.908L728.146,375.037L728.399,375.168L728.65,375.3L728.902,375.434L729.153,375.571L729.403,375.709L729.653,375.849L729.902,375.991L730.15,376.135L730.397,376.28L730.644,376.428L730.89,376.577L731.136,376.728L731.38,376.88L731.624,377.035L731.867,377.191L732.11,377.349L732.351,377.508L732.592,377.669L732.832,377.832L733.071,377.996L733.309,378.162L733.546,378.33L733.783,378.499L734.018,378.669L734.252,378.841L734.486,379.015L734.718,379.19L734.95,379.367L735.18,379.545L735.41,379.725L735.638,379.907L735.866,380.089L736.092,380.273L736.317,380.459L736.541,380.645L736.764,380.834L736.986,381.023L737.207,381.214L737.426,381.406L737.644,381.6L737.861,381.795L738.077,381.991L738.292,382.189L738.505,382.388L738.717,382.588L738.928,382.789L739.137,382.992L739.345,383.196L739.551,383.4L739.756,383.607L739.96,383.814L740.162,384.023L740.363,384.233L740.563,384.443L740.761,384.655L740.957,384.868L741.152,385.083L741.345,385.298L741.537,385.515L741.727,385.732L741.916,385.951L742.102,386.17L742.287,386.391L742.471,386.613L742.653,386.835L742.833,387.059L743.012,387.284L743.188,387.51L743.363,387.737L743.536,387.964L743.707,388.193L743.877,388.423L744.045,388.653L744.21,388.885L744.374,389.117L744.536,389.351L744.696,389.585L744.853,389.82L745.009,390.056L745.163,390.294L745.315,390.532L745.465,390.77L745.612,391.01L745.758,391.25L745.901,391.492L746.042,391.734L746.181,391.977L746.318,392.221L746.452,392.466L746.584,392.712L746.714,392.958L746.841,393.205L746.966,393.453L747.089,393.702L747.209,393.951L747.327,394.202L747.443,394.454L747.555,394.705L747.665,394.958L747.773,395.212L747.878,395.466L747.98,395.721L748.08,395.977L748.177,396.234L748.271,396.491L748.362,396.749L748.451,397.008L748.536,397.267L748.619,397.527L748.699,397.789L748.775,398.05L748.849,398.312L748.92,398.576L748.987,398.84L749.051,399.104L749.112,399.369L749.17,399.634L749.224,399.9L749.276,400.168L749.323,400.436L749.368,400.703L749.408,400.972L749.446,401.242L749.479,401.512L749.509,401.782L749.535,402.052L749.557,402.316L749.567,402.458L749.576,402.595L749.584,402.731L749.591,402.867L749.597,403.004L749.602,403.14L749.606,403.275L749.609,403.412L749.611,403.55L749.612,403.685L749.611,403.821L749.61,403.958L749.608,404.096L749.605,404.231L749.601,404.368L749.595,404.505L749.589,404.642L749.581,404.781L749.573,404.917L749.563,405.052L749.553,405.189L749.541,405.327L749.528,405.465L749.514,405.602L749.499,405.738L749.483,405.874L749.465,406.011L749.447,406.148L749.427,406.285L749.406,406.424L749.384,406.56L749.362,406.695L749.338,406.831L749.312,406.967L749.286,407.104L749.258,407.242L749.229,407.377L749.199,407.513L749.168,407.648L749.136,407.784L749.102,407.92L749.067,408.054L749.031,408.191L748.994,408.326L748.956,408.461L748.916,408.595L748.875,408.729L748.833,408.865L748.79,408.999L748.745,409.133L748.7,409.265L748.653,409.399L748.605,409.533L748.556,409.664L748.505,409.797L748.453,409.931L748.4,410.061L748.346,410.193L748.29,410.325L748.234,410.456L748.176,410.586L748.117,410.717L748.057,410.846L747.995,410.975L747.932,411.106L747.867,411.235L747.803,411.363L747.737,411.49L747.668,411.618L747.599,411.746L747.529,411.872L747.458,411.998L747.386,412.124L747.311,412.25L747.237,412.375L747.16,412.5L747.083,412.623L747.005,412.746L746.924,412.871L746.843,412.994L746.761,413.115L746.678,413.236L746.593,413.357L746.507,413.478L746.42,413.598L746.332,413.718L746.243,413.836L746.152,413.954L746.06,414.073L745.968,414.19L745.874,414.306L745.778,414.423L745.682,414.539L745.585,414.653L745.486,414.767L745.386,414.882L745.286,414.994L745.184,415.107L745.08,415.219L744.976,415.331L744.87,415.442L744.764,415.552L744.656,415.661L744.546,415.771L744.437,415.878L744.326,415.986L744.214,416.093L744.101,416.2L743.986,416.306L743.87,416.411L743.755,416.515L743.636,416.619L743.518,416.722L743.399,416.825L743.277,416.927L743.155,417.029L743.032,417.129L742.908,417.229L742.782,417.329L742.656,417.428L742.529,417.526L742.401,417.624L742.27,417.721L742.14,417.817L742.009,417.912L741.876,418.008L741.742,418.102L741.608,418.195L741.471,418.289L741.334,418.381L741.196,418.473L741.057,418.564L740.917,418.654L740.776,418.744L740.634,418.833L740.49,418.922L740.346,419.01L740.2,419.097L740.062,419.179L739.925,419.259L739.788,419.338L739.649,419.416L739.51,419.493L739.371,419.569L739.231,419.645L739.091,419.719L738.952,419.791L738.813,419.863L738.671,419.935L738.53,420.005L738.39,420.073L738.249,420.141L738.107,420.208L737.965,420.274L737.823,420.339L737.68,420.403L737.538,420.466L737.395,420.527L737.253,420.588L737.109,420.648L736.966,420.707L736.822,420.764L736.678,420.821L736.534,420.877L736.39,420.931L736.245,420.985L736.1,421.038L735.956,421.089L735.811,421.14L735.665,421.19L735.52,421.238L735.374,421.286L735.229,421.332L735.083,421.378L734.937,421.423L734.791,421.467L734.644,421.509L734.497,421.551L734.351,421.592L734.204,421.632L734.057,421.67L733.91,421.708L733.763,421.745L733.616,421.781L733.468,421.816L733.321,421.85L733.174,421.882L733.026,421.914L732.878,421.945L732.731,421.975L732.583,422.004L732.434,422.033L732.286,422.06L732.138,422.086L731.99,422.111L731.841,422.136L731.693,422.159L731.546,422.182L731.397,422.203L731.249,422.224L731.1,422.244L730.951,422.263L730.803,422.28L730.654,422.297L730.506,422.313L730.351,422.329L730.06,422.356L729.763,422.38L729.466,422.401L729.169,422.417L728.872,422.431L728.574,422.441L728.278,422.447L727.981,422.45L727.684,422.45L727.388,422.446L727.092,422.439L726.796,422.428L726.5,422.414L726.205,422.397L725.91,422.377L725.615,422.353L725.321,422.327L725.027,422.297L724.734,422.264L724.441,422.228L724.148,422.188L723.856,422.146L723.565,422.101L723.273,422.053L722.982,422.001L722.692,421.947L722.403,421.89L722.114,421.83L721.825,421.767L721.537,421.701L721.25,421.633L720.963,421.562L720.678,421.488L720.392,421.411L720.108,421.331L719.824,421.249L719.54,421.164L719.258,421.077L718.976,420.986L718.695,420.894L718.415,420.798L718.135,420.7L717.857,420.6L717.579,420.497L717.302,420.392L717.026,420.284L716.75,420.174L716.476,420.061L716.202,419.946L715.929,419.828L715.657,419.708L715.387,419.586L715.116,419.462L714.847,419.335L714.579,419.206L714.312,419.074L714.045,418.941L713.78,418.805L713.516,418.667L713.253,418.527L712.99,418.384L712.729,418.24L712.469,418.093L712.21,417.945L711.951,417.794L711.694,417.641L711.438,417.486L711.183,417.329L710.93,417.17L710.677,417.009L710.426,416.846L710.176,416.681L709.927,416.514L709.679,416.346L709.432,416.175L709.187,416.002L708.942,415.827L708.7,415.651L708.458,415.473L708.217,415.293L707.978,415.111L707.74,414.927L707.503,414.742L707.268,414.555L707.034,414.366L706.802,414.175L706.571,413.982L706.341,413.788L706.112,413.592L705.885,413.395L705.659,413.195L705.435,412.994L705.212,412.792L704.991,412.588L704.771,412.382L704.553,412.175L704.336,411.966L704.121,411.756L703.907,411.543L703.695,411.33L703.485,411.115L703.275,410.898L703.068,410.68L702.862,410.46L702.658,410.239L702.455,410.017L702.254,409.793L702.055,409.567L701.858,409.34L701.662,409.112L701.468,408.883L701.275,408.652L701.085,408.419L700.896,408.186L700.709,407.95L700.524,407.714L700.34,407.477L700.158,407.237L699.979,406.997L699.801,406.755L699.625,406.513L699.451,406.269L699.279,406.024L699.109,405.777L698.941,405.529L698.774,405.28L698.61,405.03L698.448,404.779L698.288,404.526L698.13,404.273L697.974,404.018L697.82,403.761L697.668,403.505L697.518,403.247L697.37,402.987L697.225,402.727L697.082,402.465L696.941,402.203L696.802,401.94L696.666,401.675L696.531,401.409L696.4,401.143L696.27,400.875L696.143,400.607L696.018,400.337L695.895,400.067L695.775,399.795L695.657,399.522L695.542,399.249L695.429,398.975L695.319,398.7L695.211,398.424L695.106,398.147L695.003,397.869L694.903,397.59L694.806,397.311L694.711,397.03L694.619,396.749L694.529,396.467L694.442,396.184L694.358,395.901L694.277,395.617L694.198,395.331L694.122,395.046L694.05,394.759L693.979,394.472L693.912,394.184L693.848,393.896L693.787,393.607L693.728,393.316L693.673,393.026L693.621,392.735L693.572,392.444L693.525,392.151L693.482,391.858L693.442,391.565L693.406,391.271L693.372,390.977L693.342,390.682L693.315,390.387L693.291,390.091L693.27,389.795L693.253,389.499L693.239,389.202L693.229,388.904L693.222,388.608L693.218,388.31L693.218,388.012L693.222,387.714L693.229,387.415L693.24,387.116L693.253,386.825L693.262,386.669L693.272,386.519L693.282,386.37L693.293,386.221L693.305,386.071L693.318,385.921L693.332,385.771L693.347,385.621L693.363,385.473L693.379,385.325L693.397,385.174L693.416,385.024L693.435,384.875L693.456,384.726L693.477,384.576L693.5,384.426L693.523,384.278L693.547,384.128L693.573,383.978L693.599,383.831L693.626,383.681L693.654,383.531L693.683,383.382L693.714,383.233L693.745,383.085L693.777,382.936L693.81,382.787L693.844,382.639L693.879,382.491L693.915,382.341L693.952,382.193L693.99,382.045L694.029,381.896L694.069,381.748L694.11,381.6L694.152,381.453L694.195,381.305L694.239,381.157L694.284,381.01L694.33,380.862L694.377,380.715L694.425,380.569L694.474,380.422L694.524,380.275L694.576,380.128L694.628,379.981L694.681,379.836L694.735,379.69L694.791,379.544L694.847,379.398L694.904,379.253L694.963,379.107L695.022,378.963L695.082,378.819L695.144,378.672L695.206,378.529L695.269,378.385L695.334,378.24L695.399,378.098L695.467,377.951L695.524,377.831L695.584,377.709L695.644,377.59L695.705,377.471L695.767,377.351L695.832,377.233L695.896,377.116L695.962,377L696.029,376.885L696.097,376.77L696.167,376.655L696.238,376.542L696.309,376.432L696.382,376.321L696.456,376.211L696.531,376.101L696.607,375.993L696.684,375.887L696.763,375.78L696.842,375.676L696.922,375.572L697.004,375.468L697.087,375.366L697.169,375.267L697.254,375.167L697.34,375.068L697.427,374.97L697.515,374.873L697.603,374.778L697.691,374.685L697.782,374.591L697.873,374.499L697.965,374.409L698.059,374.319L698.152,374.231L698.247,374.144L698.344,374.057L698.439,373.973L698.535,373.89L698.634,373.807L698.733,373.726L698.833,373.645L698.933,373.567L699.033,373.49L699.135,373.414L699.236,373.339L699.339,373.265L699.443,373.193L699.546,373.122L699.652,373.051L699.757,372.982L699.862,372.915L699.969,372.848L700.075,372.784L700.182,372.72L700.291,372.657L700.399,372.595L700.507,372.535L700.616,372.476L700.725,372.419L700.836,372.362L700.946,372.306L701.057,372.252L701.168,372.199L701.279,372.147L701.39,372.096L701.502,372.047L701.615,371.998L701.728,371.95L701.84,371.904L701.953,371.859L702.066,371.815L702.18,371.772L702.303,371.727L702.522,371.65L702.751,371.573L702.98,371.501L703.211,371.433L703.441,371.369L703.673,371.309L703.905,371.252L704.137,371.199L704.37,371.15L704.603,371.104L704.836,371.062L705.07,371.023L705.304,370.988L705.539,370.956L705.773,370.927L706.007,370.9L706.243,370.877L706.477,370.857L706.712,370.84L706.947,370.825L707.183,370.814L707.419,370.805L707.655,370.798L707.891,370.794L708.127,370.793L708.363,370.794L708.599,370.797L708.836,370.803L709.072,370.811L709.308,370.821L709.545,370.834L709.782,370.849L710.019,370.865L710.256,370.884L710.493,370.905L710.73,370.928L710.967,370.953L711.205,370.979L711.442,371.008L711.679,371.038L711.916,371.07L712.154,371.104L712.392,371.14L712.629,371.177L712.867,371.216L713.104,371.257L713.342,371.299L713.58,371.342L713.817,371.388L714.055,371.434L714.293,371.483L714.305,371.485L714.493,371.48L714.76,371.475L715.026,371.474L715.293,371.477L715.56,371.482L715.827,371.492L716.095,371.504L716.362,371.52L716.628,371.539L716.895,371.561L717.162,371.586L717.429,371.615L717.695,371.646ZM710.069,379.238L709.898,379.22L709.729,379.203L709.561,379.189L709.395,379.175L709.231,379.164L709.068,379.154L708.907,379.145L708.749,379.138L708.591,379.133L708.437,379.129L708.284,379.127L708.133,379.126L707.984,379.127L707.838,379.13L707.693,379.134L707.551,379.139L707.412,379.146L707.274,379.154L707.138,379.164L707.005,379.176L706.875,379.189L706.748,379.203L706.621,379.218L706.499,379.235L706.379,379.254L706.261,379.273L706.145,379.294L706.033,379.316L705.923,379.339L705.815,379.364L705.71,379.389L705.608,379.416L705.509,379.444L705.412,379.472L705.318,379.502L705.226,379.532L705.128,379.567L705.093,379.58L705.05,379.596L705.008,379.612L704.966,379.629L704.924,379.646L704.885,379.663L704.845,379.68L704.806,379.698L704.766,379.715L704.728,379.733L704.691,379.751L704.653,379.77L704.617,379.788L704.582,379.806L704.546,379.825L704.511,379.844L704.476,379.863L704.443,379.882L704.411,379.901L704.378,379.921L704.344,379.941L704.313,379.96L704.281,379.981L704.25,380.001L704.22,380.021L704.19,380.042L704.16,380.063L704.131,380.084L704.101,380.105L704.073,380.127L704.044,380.149L704.015,380.171L703.989,380.193L703.962,380.215L703.935,380.237L703.908,380.261L703.88,380.285L703.855,380.308L703.829,380.332L703.803,380.356L703.778,380.38L703.753,380.405L703.727,380.431L703.703,380.456L703.678,380.483L703.652,380.51L703.629,380.536L703.605,380.563L703.581,380.59L703.557,380.618L703.532,380.649L703.508,380.678L703.486,380.706L703.462,380.737L703.439,380.768L703.416,380.799L703.392,380.832L703.369,380.865L703.346,380.898L703.324,380.931L703.301,380.966L703.277,381.003L703.255,381.038L703.233,381.074L703.211,381.112L703.188,381.151L703.166,381.19L703.143,381.231L703.122,381.271L703.1,381.312L703.078,381.355L703.056,381.4L703.034,381.443L703.012,381.49L702.97,381.581L702.927,381.676L702.885,381.768L702.843,381.863L702.802,381.958L702.763,382.05L702.724,382.145L702.685,382.24L702.647,382.333L702.61,382.428L702.573,382.522L702.538,382.616L702.503,382.711L702.468,382.807L702.434,382.901L702.401,382.995L702.369,383.09L702.337,383.185L702.306,383.281L702.275,383.376L702.246,383.471L702.216,383.567L702.188,383.662L702.16,383.757L702.133,383.853L702.106,383.949L702.08,384.045L702.055,384.14L702.031,384.237L702.007,384.333L701.984,384.428L701.961,384.524L701.939,384.622L701.917,384.718L701.896,384.815L701.876,384.912L701.856,385.009L701.838,385.105L701.819,385.202L701.802,385.298L701.784,385.397L701.768,385.494L701.752,385.59L701.737,385.69L701.722,385.786L701.708,385.884L701.695,385.982L701.682,386.08L701.67,386.178L701.658,386.275L701.647,386.374L701.637,386.474L701.627,386.572L701.618,386.67L701.609,386.768L701.601,386.866L701.594,386.966L701.587,387.065L701.581,387.163L701.576,387.256L701.566,387.462L701.559,387.661L701.554,387.86L701.552,388.06L701.552,388.26L701.554,388.461L701.559,388.662L701.566,388.863L701.575,389.064L701.587,389.267L701.601,389.469L701.617,389.671L701.636,389.875L701.657,390.078L701.68,390.282L701.706,390.486L701.733,390.69L701.763,390.894L701.796,391.099L701.83,391.304L701.867,391.51L701.906,391.715L701.948,391.92L701.991,392.125L702.037,392.332L702.085,392.538L702.136,392.744L702.188,392.951L702.243,393.157L702.3,393.363L702.359,393.57L702.42,393.777L702.483,393.983L702.549,394.189L702.617,394.396L702.687,394.602L702.759,394.809L702.833,395.015L702.909,395.222L702.987,395.428L703.068,395.634L703.151,395.84L703.235,396.045L703.322,396.251L703.41,396.456L703.501,396.661L703.594,396.866L703.689,397.07L703.785,397.274L703.884,397.478L703.985,397.682L704.087,397.885L704.192,398.088L704.299,398.29L704.407,398.492L704.518,398.694L704.63,398.895L704.744,399.095L704.86,399.295L704.978,399.495L705.098,399.694L705.219,399.892L705.342,400.09L705.467,400.287L705.594,400.484L705.723,400.68L705.853,400.875L705.985,401.07L706.119,401.263L706.255,401.456L706.392,401.649L706.531,401.84L706.671,402.031L706.813,402.221L706.957,402.41L707.102,402.598L707.249,402.786L707.397,402.972L707.547,403.158L707.699,403.343L707.851,403.526L708.006,403.709L708.162,403.891L708.319,404.071L708.478,404.251L708.638,404.43L708.8,404.607L708.963,404.783L709.127,404.959L709.293,405.133L709.46,405.306L709.628,405.478L709.798,405.649L709.968,405.818L710.14,405.986L710.314,406.153L710.488,406.319L710.664,406.483L710.841,406.647L711.019,406.808L711.198,406.969L711.378,407.128L711.559,407.286L711.742,407.442L711.925,407.597L712.11,407.751L712.295,407.903L712.482,408.053L712.669,408.202L712.857,408.35L713.047,408.496L713.237,408.641L713.428,408.784L713.62,408.925L713.813,409.066L714.006,409.204L714.2,409.34L714.395,409.475L714.592,409.609L714.788,409.741L714.986,409.871L715.184,409.999L715.382,410.126L715.582,410.251L715.782,410.374L715.982,410.495L716.184,410.615L716.385,410.733L716.588,410.849L716.791,410.964L716.994,411.076L717.198,411.187L717.402,411.295L717.607,411.402L717.812,411.507L718.018,411.61L718.224,411.712L718.43,411.811L718.637,411.908L718.843,412.004L719.051,412.097L719.258,412.189L719.466,412.278L719.674,412.366L719.882,412.451L720.09,412.534L720.299,412.616L720.508,412.695L720.716,412.773L720.925,412.848L721.134,412.921L721.343,412.992L721.552,413.061L721.761,413.128L721.97,413.193L722.179,413.255L722.388,413.316L722.597,413.374L722.806,413.43L723.015,413.485L723.223,413.536L723.432,413.586L723.64,413.634L723.848,413.679L724.056,413.722L724.263,413.763L724.471,413.802L724.678,413.838L724.885,413.873L725.091,413.905L725.298,413.935L725.504,413.962L725.709,413.988L725.915,414.011L726.12,414.031L726.324,414.05L726.528,414.066L726.732,414.08L726.936,414.092L727.138,414.102L727.341,414.109L727.543,414.114L727.745,414.116L727.946,414.117L728.147,414.115L728.347,414.11L728.546,414.104L728.745,414.095L728.944,414.083L729.143,414.07L729.34,414.054L729.544,414.035L729.636,414.026L729.734,414.015L729.832,414.004L729.93,413.992L730.028,413.98L730.125,413.967L730.223,413.953L730.32,413.939L730.418,413.924L730.515,413.909L730.612,413.893L730.709,413.876L730.806,413.859L730.903,413.841L730.998,413.823L731.095,413.804L731.192,413.784L731.288,413.764L731.384,413.743L731.48,413.722L731.575,413.7L731.671,413.678L731.766,413.654L731.862,413.63L731.957,413.606L732.052,413.581L732.146,413.555L732.242,413.529L732.336,413.502L732.431,413.474L732.525,413.446L732.619,413.417L732.713,413.388L732.808,413.358L732.902,413.327L732.996,413.295L733.089,413.263L733.182,413.231L733.276,413.197L733.369,413.164L733.463,413.129L733.556,413.094L733.649,413.058L733.741,413.021L733.834,412.984L733.927,412.946L734.019,412.908L734.112,412.868L734.204,412.828L734.296,412.788L734.389,412.746L734.48,412.705L734.571,412.662L734.663,412.619L734.755,412.575L734.847,412.53L734.938,412.484L735.028,412.439L735.12,412.392L735.212,412.344L735.302,412.296L735.393,412.247L735.483,412.197L735.574,412.147L735.664,412.096L735.755,412.044L735.846,411.991L735.935,411.938L736.034,411.879L736.133,411.819L736.23,411.759L736.326,411.699L736.42,411.638L736.514,411.578L736.606,411.517L736.697,411.457L736.787,411.396L736.875,411.336L736.964,411.275L737.05,411.214L737.135,411.153L737.22,411.091L737.303,411.03L737.384,410.969L737.465,410.908L737.545,410.846L737.624,410.785L737.7,410.724L737.777,410.662L737.853,410.6L737.927,410.538L737.999,410.477L738.071,410.415L738.143,410.353L738.212,410.292L738.282,410.229L738.35,410.167L738.416,410.106L738.482,410.044L738.547,409.982L738.611,409.92L738.675,409.857L738.736,409.796L738.797,409.734L738.858,409.671L738.916,409.61L738.975,409.547L739.031,409.486L739.087,409.424L739.144,409.361L739.198,409.299L739.251,409.238L739.304,409.175L739.356,409.113L739.407,409.051L739.456,408.989L739.506,408.926L739.554,408.865L739.602,408.802L739.649,408.74L739.694,408.678L739.739,408.616L739.784,408.554L739.827,408.491L739.87,408.429L739.912,408.366L739.953,408.304L739.993,408.243L740.033,408.18L740.072,408.117L740.11,408.055L740.148,407.992L740.184,407.93L740.22,407.868L740.256,407.805L740.291,407.742L740.325,407.68L740.357,407.618L740.39,407.554L740.423,407.49L740.454,407.427L740.484,407.366L740.514,407.303L740.544,407.238L740.572,407.176L740.601,407.112L740.628,407.048L740.655,406.986L740.681,406.922L740.707,406.857L740.732,406.794L740.756,406.73L740.78,406.665L740.804,406.601L740.826,406.537L740.848,406.471L740.87,406.406L740.891,406.341L740.911,406.277L740.931,406.211L740.95,406.146L740.969,406.08L740.987,406.014L741.004,405.949L741.022,405.882L741.038,405.815L741.054,405.749L741.07,405.681L741.084,405.615L741.099,405.547L741.112,405.48L741.125,405.413L741.138,405.345L741.15,405.276L741.162,405.206L741.173,405.137L741.183,405.07L741.193,405.001L741.202,404.931L741.211,404.862L741.22,404.791L741.227,404.72L741.235,404.65L741.241,404.58L741.247,404.51L741.253,404.438L741.258,404.365L741.262,404.293L741.266,404.222L741.27,404.15L741.272,404.077L741.275,404.005L741.276,403.93L741.278,403.857L741.278,403.784L741.278,403.709L741.278,403.634L741.277,403.56L741.275,403.486L741.273,403.409L741.27,403.333L741.267,403.259L741.263,403.183L741.259,403.107L741.254,403.03L741.249,402.96L741.235,402.797L741.22,402.642L741.203,402.484L741.183,402.326L741.161,402.168L741.137,402.008L741.11,401.845L741.081,401.683L741.05,401.52L741.016,401.356L740.98,401.19L740.942,401.024L740.901,400.856L740.858,400.688L740.813,400.519L740.765,400.349L740.715,400.177L740.663,400.006L740.608,399.834L740.55,399.66L740.491,399.486L740.429,399.312L740.365,399.136L740.299,398.961L740.23,398.784L740.159,398.607L740.086,398.429L740.01,398.251L739.932,398.072L739.851,397.892L739.769,397.713L739.685,397.533L739.598,397.352L739.509,397.172L739.417,396.991L739.324,396.809L739.228,396.627L739.13,396.445L739.03,396.263L738.928,396.081L738.824,395.899L738.717,395.716L738.609,395.533L738.499,395.351L738.386,395.168L738.271,394.985L738.155,394.802L738.037,394.62L737.916,394.437L737.793,394.255L737.669,394.072L737.543,393.89L737.415,393.708L737.285,393.526L737.153,393.345L737.019,393.164L736.884,392.983L736.746,392.802L736.607,392.622L736.467,392.442L736.324,392.263L736.18,392.084L736.034,391.905L735.887,391.727L735.738,391.549L735.587,391.372L735.434,391.195L735.281,391.019L735.126,390.844L734.969,390.67L734.81,390.495L734.651,390.322L734.489,390.149L734.326,389.977L734.162,389.806L733.997,389.635L733.83,389.466L733.662,389.297L733.493,389.129L733.322,388.961L733.15,388.795L732.977,388.63L732.803,388.465L732.627,388.301L732.451,388.139L732.273,387.977L732.094,387.816L731.915,387.657L731.733,387.498L731.552,387.341L731.369,387.185L731.185,387.029L731,386.875L730.814,386.722L730.628,386.57L730.44,386.42L730.252,386.27L730.063,386.122L729.873,385.975L729.682,385.83L729.49,385.685L729.298,385.542L729.105,385.401L728.912,385.26L728.718,385.121L728.523,384.984L728.328,384.848L728.132,384.713L727.936,384.58L727.739,384.448L727.542,384.318L727.344,384.189L727.146,384.062L726.947,383.937L726.748,383.813L726.549,383.69L726.35,383.569L726.15,383.45L725.95,383.333L725.75,383.216L725.55,383.102L725.349,382.99L725.148,382.879L724.948,382.77L724.747,382.663L724.546,382.557L724.345,382.453L724.144,382.351L723.944,382.251L723.743,382.153L723.624,382.095L723.478,382.15L723.205,382.231L722.927,382.293L722.646,382.336L722.363,382.36L722.078,382.365L721.794,382.35L721.512,382.315L721.232,382.262L720.957,382.189L720.687,382.098L720.267,381.94L719.857,381.788L719.446,381.638L719.034,381.492L718.62,381.346L718.417,381.276L718.211,381.206L718.006,381.137L717.801,381.069L717.596,381.001L717.391,380.934L717.186,380.868L716.981,380.803L716.777,380.739L716.573,380.676L716.37,380.614L716.167,380.553L715.964,380.492L715.762,380.433L715.56,380.375L715.359,380.318L715.158,380.262L714.958,380.208L714.758,380.154L714.559,380.101L714.361,380.05L714.163,380L713.967,379.951L713.771,379.904L713.674,379.881L713.634,379.885L713.562,379.895L713.475,379.906L713.192,379.934L712.907,379.942L712.623,379.931L712.34,379.901L712.06,379.851L711.784,379.782L711.513,379.695L711.249,379.589L710.993,379.466L710.745,379.325L710.737,379.32L710.592,379.3L710.416,379.278L710.242,379.257L710.069,379.238Z" style="fill:rgb(29,95,0);fill-opacity:0.351447;"/>
        </g>
        <g transform="matrix(0.993689,-0.112168,0.112168,0.993689,-25.1266,82.9723)">
            <path d="M772.794,408.369L772.929,408.386L773.064,408.405L773.198,408.425L773.331,408.447L773.465,408.47L773.598,408.495L773.73,408.52L773.862,408.548L773.993,408.577L774.124,408.607L774.254,408.638L774.384,408.67L774.513,408.704L774.642,408.74L774.771,408.776L774.899,408.814L775.026,408.853L775.152,408.892L775.279,408.934L775.405,408.976L775.53,409.02L775.654,409.064L775.779,409.11L775.902,409.157L776.025,409.205L776.148,409.254L776.27,409.304L776.392,409.355L776.513,409.407L776.634,409.46L776.753,409.514L776.873,409.569L776.992,409.625L777.111,409.683L777.229,409.741L777.346,409.799L777.463,409.859L777.58,409.92L777.696,409.982L777.811,410.044L777.926,410.108L778.04,410.172L778.161,410.241L778.381,410.37L778.606,410.506L778.829,410.645L779.05,410.788L779.269,410.934L779.486,411.083L779.701,411.234L779.915,411.389L780.127,411.547L780.337,411.707L780.545,411.87L780.752,412.036L780.957,412.204L781.16,412.375L781.362,412.549L781.562,412.726L781.76,412.904L781.957,413.085L782.151,413.269L782.345,413.455L782.536,413.643L782.726,413.834L782.915,414.026L783.101,414.221L783.286,414.418L783.47,414.618L783.652,414.819L783.832,415.022L784.011,415.228L784.188,415.435L784.363,415.645L784.537,415.856L784.709,416.069L784.879,416.284L785.048,416.501L785.215,416.72L785.381,416.94L785.544,417.162L785.706,417.386L785.867,417.612L786.025,417.839L786.182,418.067L786.337,418.297L786.491,418.529L786.642,418.763L786.792,418.998L786.94,419.234L787.087,419.472L787.231,419.711L787.374,419.951L787.514,420.193L787.653,420.436L787.79,420.68L787.925,420.925L788.059,421.172L788.19,421.42L788.319,421.669L788.447,421.92L788.572,422.171L788.695,422.423L788.816,422.676L788.936,422.931L789.053,423.187L789.168,423.443L789.281,423.7L789.392,423.958L789.5,424.217L789.607,424.478L789.711,424.738L789.813,425L789.913,425.262L790.01,425.525L790.106,425.789L790.199,426.054L790.289,426.319L790.377,426.585L790.463,426.851L790.546,427.118L790.627,427.386L790.705,427.654L790.781,427.923L790.854,428.192L790.925,428.462L790.993,428.732L791.058,429.002L791.121,429.274L791.181,429.545L791.238,429.817L791.292,430.089L791.344,430.362L791.393,430.635L791.439,430.908L791.481,431.181L791.521,431.455L791.558,431.729L791.592,432.003L791.622,432.277L791.65,432.551L791.674,432.827L791.695,433.101L791.713,433.376L791.727,433.651L791.738,433.926L791.745,434.201L791.749,434.477L791.749,434.751L791.746,435.026L791.739,435.295L791.734,435.439L791.728,435.576L791.721,435.713L791.713,435.85L791.704,435.988L791.695,436.126L791.684,436.264L791.672,436.4L791.659,436.537L791.645,436.674L791.63,436.811L791.614,436.948L791.597,437.085L791.579,437.222L791.56,437.359L791.54,437.494L791.519,437.631L791.496,437.768L791.473,437.905L791.449,438.04L791.423,438.176L791.396,438.312L791.368,438.447L791.339,438.584L791.308,438.719L791.277,438.854L791.244,438.99L791.21,439.124L791.175,439.259L791.139,439.394L791.102,439.527L791.063,439.662L791.023,439.796L790.982,439.929L790.939,440.063L790.896,440.195L790.85,440.328L790.804,440.462L790.756,440.593L790.708,440.725L790.657,440.857L790.606,440.988L790.552,441.119L790.498,441.25L790.443,441.379L790.386,441.509L790.327,441.639L790.267,441.768L790.207,441.896L790.144,442.024L790.08,442.152L790.015,442.279L789.948,442.405L789.88,442.532L789.81,442.657L789.74,442.782L789.667,442.906L789.593,443.03L789.518,443.153L789.442,443.275L789.363,443.397L789.283,443.519L789.203,443.639L789.12,443.759L789.037,443.878L788.952,443.996L788.864,444.114L788.776,444.231L788.687,444.346L788.596,444.462L788.504,444.576L788.41,444.69L788.314,444.803L788.217,444.915L788.12,445.024L788.02,445.134L787.919,445.244L787.817,445.351L787.713,445.458L787.608,445.564L787.502,445.669L787.394,445.773L787.285,445.875L787.175,445.977L787.062,446.078L786.949,446.177L786.835,446.275L786.719,446.373L786.602,446.469L786.484,446.564L786.364,446.658L786.244,446.75L786.122,446.841L785.998,446.932L785.873,447.021L785.747,447.109L785.621,447.195L785.493,447.28L785.363,447.365L785.236,447.445L785.086,447.538L784.938,447.628L784.792,447.716L784.644,447.803L784.496,447.888L784.347,447.972L784.2,448.054L784.051,448.135L783.903,448.214L783.754,448.291L783.605,448.367L783.456,448.442L783.306,448.515L783.156,448.586L783.007,448.656L782.857,448.724L782.707,448.791L782.557,448.856L782.406,448.92L782.255,448.982L782.104,449.042L781.954,449.101L781.802,449.159L781.651,449.214L781.5,449.268L781.348,449.321L781.197,449.372L781.045,449.421L780.892,449.469L780.741,449.516L780.589,449.56L780.437,449.603L780.284,449.645L780.132,449.684L779.979,449.723L779.827,449.759L779.674,449.794L779.522,449.827L779.37,449.859L779.217,449.889L779.064,449.918L778.913,449.944L778.76,449.97L778.607,449.993L778.455,450.015L778.304,450.036L778.151,450.054L777.998,450.072L777.846,450.087L777.695,450.101L777.544,450.113L777.391,450.124L777.24,450.133L777.089,450.141L776.938,450.146L776.788,450.151L776.637,450.153L776.486,450.154L776.336,450.154L776.186,450.152L776.036,450.148L775.888,450.143L775.739,450.136L775.59,450.128L775.441,450.118L775.294,450.107L775.147,450.094L775,450.079L774.852,450.063L774.706,450.046L774.56,450.027L774.414,450.006L774.269,449.984L774.125,449.961L773.981,449.936L773.837,449.91L773.693,449.882L773.551,449.853L773.409,449.823L773.267,449.791L773.126,449.757L772.985,449.723L772.846,449.687L772.706,449.65L772.566,449.611L772.428,449.571L772.291,449.53L772.153,449.487L772.017,449.443L771.881,449.398L771.746,449.352L771.611,449.304L771.477,449.255L771.344,449.205L771.21,449.154L771.078,449.101L770.947,449.048L770.817,448.993L770.686,448.937L770.556,448.88L770.427,448.822L770.299,448.763L770.172,448.703L770.045,448.641L769.919,448.579L769.793,448.515L769.668,448.451L769.543,448.385L769.421,448.319L769.298,448.251L769.175,448.182L769.054,448.113L768.934,448.043L768.813,447.971L768.694,447.899L768.575,447.825L768.457,447.751L768.339,447.676L768.224,447.6L768.107,447.523L767.993,447.446L767.878,447.367L767.763,447.287L767.651,447.207L767.538,447.126L767.426,447.044L767.315,446.961L767.204,446.878L767.094,446.793L766.985,446.708L766.877,446.623L766.769,446.535L766.662,446.448L766.556,446.36L766.45,446.272L766.345,446.182L766.24,446.091L766.136,446.001L766.033,445.909L765.926,445.812L765.727,445.63L765.527,445.44L765.329,445.249L765.134,445.054L764.941,444.857L764.751,444.657L764.563,444.456L764.378,444.252L764.195,444.045L764.014,443.836L763.836,443.625L763.661,443.413L763.488,443.198L763.317,442.981L763.149,442.762L762.983,442.541L762.82,442.319L762.659,442.094L762.5,441.868L762.343,441.64L762.189,441.41L762.037,441.179L761.888,440.946L761.74,440.711L761.595,440.475L761.453,440.238L761.312,439.998L761.174,439.758L761.038,439.516L760.905,439.273L760.773,439.028L760.645,438.782L760.518,438.535L760.393,438.286L760.271,438.037L760.151,437.786L760.033,437.534L759.918,437.282L759.804,437.028L759.693,436.773L759.585,436.517L759.478,436.26L759.374,436.002L759.272,435.744L759.172,435.484L759.075,435.224L758.98,434.963L758.887,434.702L758.797,434.439L758.708,434.176L758.623,433.912L758.539,433.648L758.458,433.383L758.379,433.118L758.302,432.852L758.228,432.585L758.156,432.318L758.087,432.051L758.019,431.783L757.955,431.515L757.892,431.247L757.832,430.978L757.775,430.709L757.72,430.44L757.667,430.17L757.617,429.901L757.569,429.631L757.524,429.361L757.481,429.091L757.441,428.821L757.403,428.551L757.368,428.281L757.336,428.011L757.316,427.832L757.231,427.684L757.127,427.475L757.034,427.261L756.954,427.041L756.886,426.818L756.831,426.59L756.788,426.361L756.759,426.129L756.742,425.896L756.739,425.662L756.749,425.428L756.772,425.196L756.808,424.965L756.856,424.736L756.908,424.526L756.962,424.308L757.016,424.092L757.071,423.877L757.127,423.664L757.183,423.453L757.2,423.39L757.214,423.183L757.235,422.918L757.258,422.655L757.286,422.39L757.316,422.127L757.349,421.865L757.386,421.603L757.426,421.342L757.47,421.082L757.516,420.822L757.567,420.563L757.621,420.305L757.678,420.048L757.739,419.792L757.802,419.545L757.838,419.41L757.873,419.282L757.909,419.155L757.946,419.029L757.983,418.903L758.022,418.777L758.062,418.651L758.102,418.526L758.144,418.401L758.187,418.275L758.23,418.151L758.275,418.027L758.321,417.902L758.368,417.779L758.415,417.656L758.465,417.532L758.515,417.409L758.566,417.288L758.618,417.166L758.671,417.044L758.726,416.923L758.781,416.802L758.838,416.682L758.895,416.563L758.955,416.443L759.015,416.323L759.076,416.206L759.138,416.088L759.202,415.97L759.267,415.852L759.333,415.736L759.4,415.62L759.469,415.504L759.538,415.39L759.609,415.275L759.681,415.161L759.755,415.048L759.83,414.935L759.906,414.823L759.982,414.713L760.061,414.601L760.141,414.491L760.221,414.382L760.304,414.273L760.387,414.165L760.472,414.058L760.558,413.952L760.645,413.847L760.734,413.741L760.824,413.638L760.915,413.535L761.008,413.432L761.102,413.331L761.197,413.231L761.293,413.131L761.392,413.032L761.49,412.936L761.59,412.839L761.692,412.743L761.795,412.649L761.899,412.556L762.004,412.463L762.111,412.372L762.219,412.282L762.328,412.193L762.438,412.106L762.55,412.019L762.663,411.934L762.777,411.849L762.892,411.767L763.008,411.685L763.126,411.605L763.244,411.527L763.364,411.449L763.485,411.372L763.608,411.297L763.731,411.224L763.854,411.152L763.899,411.127L763.984,411.055L764.1,410.958L764.216,410.864L764.334,410.77L764.454,410.677L764.573,410.587L764.693,410.499L764.814,410.411L764.937,410.325L765.06,410.241L765.184,410.158L765.308,410.077L765.434,409.998L765.56,409.921L765.687,409.844L765.814,409.77L765.943,409.698L766.072,409.627L766.202,409.558L766.332,409.49L766.463,409.425L766.595,409.361L766.728,409.299L766.861,409.238L766.994,409.18L767.128,409.123L767.263,409.069L767.398,409.016L767.534,408.964L767.671,408.915L767.807,408.867L767.944,408.822L768.081,408.778L768.219,408.736L768.358,408.696L768.496,408.658L768.634,408.622L768.774,408.587L768.913,408.555L769.052,408.524L769.191,408.495L769.331,408.468L769.471,408.443L769.611,408.42L769.751,408.398L769.891,408.379L770.031,408.361L770.17,408.345L770.311,408.331L770.451,408.318L770.59,408.308L770.729,408.299L770.869,408.292L771.008,408.286L771.148,408.283L771.286,408.281L771.425,408.281L771.564,408.282L771.701,408.285L771.839,408.29L771.977,408.297L772.114,408.305L772.251,408.314L772.387,408.326L772.523,408.338L772.66,408.353L772.794,408.369ZM771.495,417.87L771.404,417.861L771.314,417.852L771.225,417.845L771.138,417.838L771.051,417.833L770.966,417.828L770.882,417.824L770.8,417.821L770.719,417.819L770.638,417.817L770.559,417.816L770.481,417.816L770.405,417.817L770.329,417.818L770.255,417.821L770.182,417.823L770.11,417.827L770.039,417.831L769.969,417.836L769.901,417.841L769.833,417.847L769.767,417.854L769.702,417.861L769.638,417.869L769.575,417.877L769.513,417.886L769.452,417.895L769.392,417.905L769.333,417.915L769.276,417.926L769.219,417.937L769.163,417.949L769.108,417.961L769.054,417.974L769.001,417.987L768.949,418L768.898,418.014L768.847,418.028L768.798,418.043L768.749,418.058L768.702,418.073L768.696,418.075L768.694,418.076L768.645,418.133L768.596,418.19L768.546,418.25L768.495,418.311L768.445,418.373L768.394,418.437L768.343,418.503L768.291,418.57L768.24,418.639L768.188,418.709L768.137,418.781L768.084,418.855L768.032,418.929L767.98,419.006L767.927,419.085L767.874,419.164L767.821,419.247L767.768,419.33L767.715,419.415L767.661,419.502L767.608,419.591L767.555,419.681L767.501,419.773L767.448,419.867L767.394,419.962L767.34,420.059L767.287,420.158L767.233,420.259L767.179,420.362L767.125,420.466L767.072,420.572L767.018,420.68L766.964,420.79L766.911,420.901L766.857,421.014L766.804,421.129L766.75,421.247L766.697,421.365L766.644,421.485L766.591,421.608L766.538,421.732L766.485,421.858L766.432,421.986L766.38,422.115L766.327,422.247L766.275,422.381L766.223,422.515L766.171,422.652L766.119,422.792L766.068,422.933L766.017,423.075L765.966,423.219L765.915,423.366L765.864,423.514L765.814,423.665L765.764,423.817L765.714,423.97L765.664,424.127L765.615,424.285L765.566,424.444L765.517,424.605L765.487,424.707L765.486,424.824L765.486,425.003L765.488,425.183L765.492,425.365L765.498,425.548L765.505,425.732L765.515,425.918L765.527,426.104L765.54,426.292L765.556,426.48L765.573,426.67L765.592,426.861L765.614,427.052L765.637,427.244L765.662,427.437L765.689,427.631L765.718,427.826L765.749,428.021L765.782,428.216L765.816,428.412L765.853,428.608L765.891,428.805L765.931,429.001L765.974,429.199L766.018,429.396L766.064,429.594L766.111,429.791L766.161,429.988L766.212,430.186L766.265,430.383L766.32,430.58L766.377,430.777L766.435,430.974L766.496,431.17L766.557,431.366L766.621,431.561L766.686,431.756L766.753,431.95L766.822,432.145L766.893,432.338L766.965,432.53L767.038,432.722L767.114,432.913L767.19,433.103L767.269,433.292L767.349,433.48L767.43,433.667L767.513,433.853L767.598,434.038L767.683,434.222L767.771,434.404L767.86,434.586L767.95,434.765L768.041,434.944L768.134,435.121L768.229,435.297L768.324,435.471L768.421,435.643L768.519,435.814L768.618,435.983L768.719,436.151L768.821,436.317L768.923,436.48L769.027,436.642L769.132,436.802L769.239,436.96L769.346,437.116L769.454,437.27L769.563,437.422L769.673,437.572L769.784,437.719L769.895,437.865L770.008,438.008L770.121,438.149L770.236,438.287L770.35,438.423L770.466,438.556L770.582,438.688L770.699,438.817L770.816,438.943L770.934,439.066L771.052,439.187L771.171,439.306L771.291,439.422L771.41,439.535L771.535,439.649L771.59,439.699L771.651,439.753L771.711,439.806L771.771,439.857L771.831,439.909L771.892,439.96L771.952,440.01L772.013,440.059L772.073,440.108L772.134,440.156L772.195,440.203L772.255,440.249L772.316,440.295L772.376,440.34L772.437,440.385L772.498,440.428L772.559,440.472L772.619,440.514L772.679,440.555L772.74,440.596L772.801,440.636L772.862,440.676L772.923,440.715L772.983,440.753L773.044,440.791L773.104,440.827L773.164,440.863L773.225,440.898L773.286,440.933L773.345,440.967L773.405,441L773.467,441.033L773.527,441.065L773.587,441.095L773.646,441.126L773.707,441.156L773.767,441.185L773.828,441.213L773.887,441.241L773.947,441.268L774.007,441.294L774.066,441.32L774.126,441.345L774.187,441.369L774.246,441.393L774.305,441.416L774.365,441.438L774.425,441.46L774.484,441.481L774.544,441.501L774.603,441.521L774.663,441.54L774.722,441.559L774.782,441.577L774.842,441.594L774.9,441.61L774.96,441.626L775.02,441.642L775.079,441.656L775.138,441.67L775.198,441.684L775.258,441.696L775.318,441.709L775.376,441.72L775.436,441.731L775.496,441.741L775.556,441.751L775.617,441.76L775.677,441.768L775.737,441.776L775.797,441.783L775.857,441.79L775.917,441.796L775.978,441.801L776.04,441.806L776.1,441.81L776.161,441.813L776.223,441.816L776.285,441.818L776.347,441.82L776.408,441.821L776.471,441.821L776.533,441.821L776.595,441.819L776.659,441.818L776.722,441.815L776.786,441.812L776.851,441.808L776.914,441.804L776.978,441.799L777.044,441.792L777.11,441.786L777.174,441.779L777.24,441.77L777.307,441.761L777.374,441.752L777.441,441.741L777.508,441.73L777.577,441.718L777.645,441.705L777.714,441.692L777.783,441.677L777.854,441.662L777.924,441.646L777.995,441.629L778.066,441.611L778.137,441.592L778.209,441.573L778.282,441.552L778.356,441.531L778.43,441.508L778.504,441.485L778.578,441.461L778.654,441.435L778.729,441.409L778.806,441.381L778.883,441.353L778.961,441.324L779.039,441.293L779.118,441.261L779.197,441.229L779.276,441.196L779.357,441.16L779.438,441.125L779.519,441.087L779.602,441.049L779.684,441.01L779.767,440.969L779.851,440.927L779.935,440.885L780.02,440.84L780.105,440.795L780.191,440.748L780.278,440.7L780.365,440.651L780.452,440.6L780.541,440.549L780.63,440.495L780.719,440.441L780.806,440.387L780.862,440.351L780.914,440.317L780.966,440.283L781.017,440.248L781.067,440.213L781.117,440.178L781.164,440.143L781.212,440.107L781.259,440.071L781.304,440.036L781.35,439.999L781.394,439.963L781.437,439.926L781.481,439.889L781.524,439.851L781.564,439.815L781.605,439.777L781.646,439.739L781.686,439.7L781.725,439.661L781.764,439.623L781.802,439.584L781.84,439.544L781.876,439.505L781.912,439.465L781.949,439.423L781.984,439.382L782.018,439.342L782.053,439.3L782.086,439.259L782.12,439.217L782.153,439.173L782.186,439.13L782.217,439.087L782.249,439.044L782.28,438.999L782.311,438.954L782.342,438.909L782.371,438.864L782.401,438.818L782.43,438.771L782.458,438.724L782.487,438.676L782.515,438.629L782.542,438.58L782.57,438.531L782.596,438.482L782.622,438.432L782.649,438.381L782.674,438.33L782.699,438.279L782.724,438.226L782.749,438.173L782.772,438.121L782.796,438.067L782.82,438.011L782.842,437.957L782.865,437.902L782.887,437.845L782.908,437.789L782.93,437.731L782.951,437.672L782.971,437.615L782.991,437.556L783.011,437.495L783.03,437.436L783.049,437.374L783.068,437.312L783.085,437.251L783.103,437.187L783.12,437.124L783.137,437.06L783.153,436.995L783.169,436.93L783.184,436.864L783.199,436.798L783.213,436.732L783.227,436.663L783.241,436.595L783.254,436.527L783.266,436.456L783.278,436.386L783.29,436.316L783.301,436.245L783.312,436.172L783.322,436.1L783.331,436.028L783.341,435.954L783.349,435.88L783.357,435.805L783.365,435.73L783.372,435.654L783.379,435.577L783.385,435.501L783.39,435.424L783.395,435.346L783.4,435.268L783.404,435.188L783.407,435.109L783.41,435.035L783.414,434.867L783.416,434.704L783.416,434.538L783.414,434.371L783.409,434.203L783.402,434.032L783.393,433.859L783.382,433.685L783.369,433.51L783.353,433.333L783.335,433.154L783.315,432.974L783.293,432.793L783.268,432.61L783.242,432.426L783.213,432.242L783.181,432.056L783.148,431.869L783.112,431.681L783.075,431.491L783.035,431.301L782.993,431.111L782.948,430.92L782.902,430.727L782.853,430.534L782.803,430.341L782.75,430.147L782.695,429.952L782.638,429.758L782.579,429.563L782.518,429.367L782.455,429.172L782.391,428.976L782.324,428.78L782.255,428.583L782.184,428.388L782.111,428.192L782.037,427.996L781.96,427.799L781.882,427.604L781.802,427.408L781.72,427.213L781.637,427.019L781.551,426.824L781.464,426.63L781.375,426.437L781.285,426.244L781.193,426.052L781.099,425.86L781.004,425.669L780.907,425.479L780.809,425.289L780.709,425.101L780.608,424.914L780.505,424.727L780.401,424.541L780.296,424.357L780.189,424.173L780.081,423.991L779.972,423.81L779.861,423.63L779.749,423.452L779.636,423.275L779.522,423.099L779.407,422.925L779.291,422.753L779.173,422.581L779.055,422.412L778.935,422.244L778.815,422.078L778.694,421.913L778.572,421.751L778.449,421.59L778.325,421.431L778.201,421.274L778.076,421.119L777.95,420.966L777.824,420.815L777.697,420.666L777.569,420.52L777.441,420.376L777.313,420.233L777.184,420.094L777.055,419.956L776.926,419.821L776.796,419.688L776.666,419.558L776.536,419.431L776.406,419.306L776.276,419.183L776.146,419.063L776.016,418.945L775.886,418.831L775.756,418.72L775.674,418.65L775.463,418.653L775.23,418.643L774.997,418.62L774.766,418.584L774.537,418.535L774.312,418.474L774.176,418.433L774.053,418.396L773.933,418.362L773.814,418.328L773.695,418.295L773.578,418.264L773.462,418.234L773.348,418.205L773.234,418.177L773.122,418.151L773.011,418.125L772.901,418.101L772.793,418.077L772.686,418.055L772.579,418.034L772.475,418.014L772.371,417.995L772.269,417.977L772.168,417.96L772.068,417.944L771.97,417.93L771.872,417.916L771.776,417.903L771.681,417.891L771.587,417.88L771.495,417.87Z" style="fill:rgb(29,95,0);fill-opacity:0.351447;"/>
        </g>
        <g transform="matrix(0.993689,-0.112168,0.112168,0.993689,-25.1266,82.9723)">
            <path d="M729.227,437.658L729.345,437.674L729.463,437.691L729.581,437.71L729.698,437.731L729.813,437.753L729.928,437.777L730.044,437.803L730.158,437.83L730.27,437.858L730.382,437.888L730.494,437.92L730.606,437.953L730.716,437.987L730.826,438.023L730.935,438.06L731.042,438.098L731.149,438.137L731.255,438.178L731.361,438.22L731.466,438.263L731.57,438.307L731.672,438.353L731.786,438.405L731.977,438.496L732.176,438.596L732.372,438.701L732.565,438.81L732.755,438.922L732.941,439.038L733.124,439.157L733.305,439.28L733.484,439.406L733.659,439.535L733.831,439.667L734.001,439.802L734.168,439.94L734.333,440.08L734.496,440.224L734.656,440.37L734.813,440.519L734.969,440.67L735.122,440.824L735.274,440.98L735.422,441.139L735.57,441.3L735.715,441.464L735.858,441.63L735.999,441.798L736.138,441.968L736.276,442.141L736.412,442.317L736.546,442.494L736.678,442.673L736.808,442.855L736.937,443.04L737.065,443.226L737.19,443.414L737.314,443.605L737.436,443.798L737.557,443.993L737.676,444.19L737.794,444.389L737.91,444.59L738.025,444.793L738.137,444.998L738.249,445.206L738.359,445.416L738.467,445.627L738.574,445.84L738.68,446.056L738.784,446.273L738.886,446.493L738.987,446.714L739.086,446.938L739.184,447.163L739.28,447.391L739.375,447.62L739.468,447.851L739.56,448.084L739.65,448.319L739.738,448.556L739.825,448.795L739.911,449.035L739.995,449.278L740.077,449.522L740.157,449.768L740.236,450.016L740.314,450.266L740.39,450.517L740.464,450.771L740.536,451.026L740.607,451.283L740.676,451.541L740.743,451.801L740.809,452.063L740.873,452.326L740.935,452.591L740.996,452.858L741.054,453.126L741.111,453.396L741.166,453.668L741.22,453.941L741.271,454.216L741.321,454.492L741.369,454.769L741.415,455.049L741.459,455.33L741.501,455.612L741.541,455.895L741.579,456.181L741.615,456.467L741.65,456.755L741.682,457.045L741.712,457.336L741.74,457.628L741.767,457.921L741.791,458.216L741.813,458.512L741.833,458.81L741.85,459.108L741.866,459.408L741.88,459.709L741.891,460.011L741.9,460.315L741.907,460.619L741.912,460.925L741.914,461.232L741.914,461.54L741.912,461.85L741.908,462.16L741.901,462.471L741.892,462.784L741.88,463.097L741.866,463.411L741.85,463.727L741.831,464.043L741.81,464.36L741.786,464.678L741.76,464.998L741.732,465.318L741.7,465.638L741.667,465.96L741.63,466.282L741.591,466.606L741.55,466.93L741.506,467.254L741.459,467.58L741.409,467.906L741.357,468.234L741.302,468.561L741.245,468.889L741.184,469.218L741.121,469.547L741.055,469.877L740.987,470.208L740.915,470.539L740.841,470.871L740.763,471.203L740.683,471.535L740.6,471.868L740.514,472.202L740.425,472.535L740.333,472.869L740.238,473.204L740.14,473.539L740.039,473.874L739.935,474.209L739.828,474.545L739.718,474.881L739.605,475.213L739.555,475.36L739.502,475.512L739.444,475.674L739.382,475.843L739.315,476.019L739.244,476.203L739.168,476.394L739.086,476.59L739,476.792L738.907,476.999L738.809,477.211L738.708,477.42L738.649,477.538L738.592,477.649L738.534,477.76L738.473,477.873L738.41,477.987L738.346,478.102L738.278,478.218L738.208,478.335L738.136,478.452L738.062,478.569L737.985,478.688L737.904,478.809L737.821,478.929L737.735,479.049L737.644,479.172L737.55,479.294L737.454,479.415L737.353,479.538L737.246,479.662L737.136,479.786L737.021,479.91L736.901,480.032L736.777,480.155L736.645,480.278L736.507,480.401L736.365,480.521L736.216,480.641L736.059,480.759L735.896,480.874L735.725,480.988L735.547,481.099L735.362,481.205L735.169,481.307L734.969,481.404L734.76,481.497L734.545,481.582L734.322,481.66L734.093,481.731L733.881,481.787L733.741,481.82L733.632,481.843L733.463,481.876L733.307,481.906L733.15,481.934L732.995,481.96L732.841,481.985L732.685,482.009L732.531,482.032L732.378,482.053L732.224,482.073L732.069,482.091L731.917,482.108L731.764,482.123L731.611,482.138L731.458,482.15L731.307,482.162L731.156,482.172L731.005,482.18L730.854,482.187L730.704,482.193L730.553,482.197L730.403,482.2L730.254,482.201L730.105,482.201L729.957,482.2L729.808,482.196L729.66,482.192L729.512,482.186L729.365,482.178L729.219,482.17L729.071,482.159L728.926,482.147L728.78,482.134L728.634,482.119L728.491,482.102L728.346,482.084L728.201,482.065L728.059,482.044L727.917,482.021L727.774,481.997L727.631,481.972L727.49,481.945L727.35,481.916L727.21,481.886L727.07,481.855L726.93,481.821L726.792,481.787L726.654,481.751L726.517,481.713L726.381,481.674L726.245,481.633L726.109,481.591L725.975,481.547L725.841,481.502L725.708,481.455L725.576,481.407L725.444,481.358L725.314,481.307L725.183,481.254L725.054,481.2L724.926,481.145L724.799,481.088L724.673,481.031L724.546,480.971L724.42,480.909L724.298,480.848L724.175,480.784L724.052,480.719L723.932,480.653L723.812,480.586L723.693,480.517L723.573,480.446L723.457,480.375L723.341,480.302L723.225,480.228L723.112,480.154L722.999,480.078L722.887,480.001L722.776,479.922L722.666,479.842L722.557,479.762L722.45,479.68L722.344,479.598L722.238,479.513L722.134,479.429L722.03,479.343L721.928,479.256L721.827,479.168L721.727,479.079L721.63,478.991L721.532,478.9L721.434,478.807L721.339,478.716L721.246,478.623L721.152,478.528L721.06,478.434L720.97,478.339L720.879,478.242L720.791,478.145L720.703,478.048L720.616,477.949L720.531,477.849L720.447,477.75L720.364,477.65L720.282,477.548L720.201,477.446L720.121,477.344L720.042,477.241L719.964,477.137L719.887,477.032L719.811,476.928L719.737,476.823L719.663,476.717L719.59,476.61L719.518,476.503L719.448,476.396L719.378,476.287L719.309,476.178L719.242,476.071L719.175,475.961L719.109,475.851L719.044,475.741L718.981,475.631L718.917,475.519L718.851,475.4L718.734,475.183L718.616,474.957L718.502,474.73L718.391,474.501L718.284,474.271L718.18,474.039L718.079,473.806L717.981,473.572L717.887,473.337L717.795,473.101L717.707,472.863L717.621,472.624L717.539,472.385L717.459,472.144L717.382,471.902L717.308,471.659L717.237,471.416L717.168,471.171L717.101,470.926L717.038,470.679L716.976,470.432L716.918,470.185L716.861,469.935L716.807,469.686L716.755,469.436L716.706,469.186L716.659,468.934L716.614,468.681L716.571,468.428L716.53,468.175L716.492,467.921L716.455,467.667L716.421,467.412L716.388,467.156L716.358,466.899L716.329,466.643L716.303,466.386L716.278,466.129L716.256,465.871L716.235,465.613L716.216,465.354L716.198,465.095L716.183,464.836L716.169,464.576L716.157,464.317L716.147,464.056L716.138,463.796L716.131,463.536L716.126,463.276L716.122,463.015L716.12,462.754L716.12,462.494L716.121,462.233L716.124,461.972L716.128,461.711L716.134,461.45L716.141,461.19L716.149,460.929L716.16,460.669L716.171,460.409L716.184,460.148L716.198,459.888L716.214,459.629L716.231,459.369L716.25,459.111L716.27,458.852L716.291,458.593L716.313,458.336L716.337,458.078L716.362,457.821L716.389,457.564L716.416,457.308L716.445,457.052L716.475,456.797L716.506,456.543L716.539,456.288L716.573,456.035L716.607,455.783L716.643,455.531L716.68,455.28L716.719,455.029L716.758,454.78L716.799,454.531L716.84,454.283L716.883,454.037L716.926,453.79L716.971,453.545L717.017,453.301L717.064,453.058L717.112,452.816L717.16,452.574L717.21,452.335L717.261,452.096L717.313,451.858L717.366,451.621L717.419,451.386L717.474,451.152L717.53,450.919L717.586,450.687L717.644,450.457L717.702,450.227L717.762,450L717.822,449.773L717.883,449.549L717.945,449.325L718.008,449.103L718.071,448.884L718.097,448.776L718.174,448.476L718.252,448.179L718.332,447.886L718.414,447.597L718.498,447.312L718.584,447.031L718.671,446.754L718.761,446.481L718.853,446.212L718.947,445.946L719.043,445.684L719.141,445.425L719.241,445.17L719.343,444.919L719.447,444.672L719.554,444.428L719.663,444.187L719.775,443.95L719.888,443.717L720.005,443.487L720.123,443.26L720.245,443.036L720.369,442.816L720.492,442.607L720.56,442.493L720.625,442.387L720.692,442.281L720.758,442.176L720.826,442.071L720.894,441.969L720.963,441.867L721.033,441.765L721.103,441.665L721.174,441.566L721.246,441.467L721.32,441.369L721.394,441.271L721.468,441.175L721.544,441.08L721.619,440.987L721.697,440.892L721.776,440.799L721.855,440.707L721.935,440.617L722.016,440.527L722.098,440.437L722.181,440.349L722.265,440.262L722.349,440.177L722.435,440.092L722.523,440.007L722.61,439.924L722.7,439.841L722.79,439.76L722.879,439.682L722.972,439.602L723.066,439.524L723.159,439.448L723.253,439.373L723.351,439.298L723.448,439.224L723.545,439.153L723.645,439.082L723.746,439.013L723.847,438.945L723.949,438.879L724.053,438.813L724.158,438.749L724.263,438.687L724.37,438.626L724.477,438.567L724.585,438.509L724.695,438.452L724.805,438.398L724.916,438.345L725.029,438.293L725.142,438.243L725.255,438.195L725.37,438.148L725.486,438.103L725.602,438.061L725.719,438.019L725.836,437.98L725.954,437.943L726.073,437.907L726.193,437.873L726.312,437.841L726.432,437.812L726.554,437.783L726.675,437.757L726.796,437.733L726.917,437.711L727.04,437.691L727.162,437.673L727.285,437.656L727.407,437.642L727.529,437.63L727.653,437.619L727.774,437.611L727.897,437.605L728.02,437.6L728.142,437.597L728.263,437.597L728.384,437.598L728.507,437.601L728.629,437.606L728.749,437.613L728.868,437.622L728.988,437.632L729.108,437.644L729.227,437.658ZM729.683,447.397L729.455,447.479L729.222,447.547L728.986,447.602L728.747,447.643L728.506,447.67L728.264,447.683L728.022,447.682L727.78,447.667L727.539,447.638L727.413,447.615L727.375,447.693L727.321,447.806L727.267,447.923L727.212,448.043L727.157,448.167L727.102,448.294L727.047,448.423L726.992,448.556L726.936,448.692L726.88,448.831L726.825,448.973L726.77,449.116L726.714,449.264L726.659,449.414L726.604,449.566L726.55,449.72L726.495,449.878L726.441,450.038L726.387,450.199L726.333,450.364L726.28,450.531L726.227,450.7L726.174,450.87L726.123,451.043L726.122,451.046L726.071,451.26L726.016,451.505L725.962,451.755L725.909,452.011L725.856,452.272L725.805,452.539L725.755,452.812L725.706,453.09L725.658,453.373L725.612,453.663L725.566,453.958L725.522,454.259L725.48,454.565L725.438,454.877L725.398,455.195L725.359,455.518L725.322,455.847L725.286,456.182L725.252,456.522L725.219,456.868L725.188,457.22L725.158,457.578L725.13,457.941L725.104,458.31L725.079,458.685L725.056,459.066L725.034,459.453L725.014,459.845L724.996,460.253L724.978,460.495L724.946,460.735L724.9,460.973L724.84,461.208L724.767,461.439L724.68,461.665L724.581,461.886L724.469,462.101L724.456,462.122L724.454,462.293L724.453,462.504L724.454,462.714L724.455,462.923L724.458,463.133L724.462,463.341L724.468,463.548L724.475,463.755L724.483,463.959L724.492,464.164L724.503,464.367L724.515,464.569L724.528,464.77L724.543,464.97L724.559,465.169L724.577,465.366L724.595,465.561L724.616,465.756L724.637,465.95L724.66,466.14L724.684,466.33L724.709,466.519L724.736,466.705L724.764,466.89L724.793,467.074L724.824,467.255L724.856,467.433L724.889,467.611L724.924,467.787L724.96,467.96L724.997,468.132L725.035,468.3L725.075,468.468L725.116,468.632L725.158,468.795L725.201,468.955L725.245,469.112L725.291,469.268L725.338,469.421L725.385,469.571L725.434,469.718L725.484,469.863L725.535,470.006L725.587,470.145L725.64,470.282L725.694,470.417L725.749,470.548L725.804,470.676L725.861,470.801L725.918,470.924L725.976,471.044L726.034,471.161L726.094,471.274L726.158,471.393L726.183,471.439L726.214,471.492L726.245,471.546L726.275,471.598L726.306,471.649L726.336,471.699L726.368,471.75L726.399,471.799L726.43,471.846L726.461,471.894L726.492,471.941L726.523,471.986L726.555,472.031L726.587,472.077L726.619,472.121L726.65,472.163L726.682,472.205L726.713,472.247L726.745,472.288L726.777,472.328L726.809,472.367L726.842,472.406L726.874,472.445L726.906,472.482L726.938,472.518L726.97,472.554L727.003,472.59L727.034,472.624L727.067,472.658L727.1,472.692L727.132,472.724L727.165,472.757L727.198,472.789L727.229,472.819L727.262,472.849L727.296,472.879L727.328,472.908L727.361,472.937L727.394,472.965L727.427,472.992L727.46,473.019L727.493,473.045L727.526,473.071L727.56,473.097L727.593,473.122L727.627,473.146L727.661,473.17L727.695,473.193L727.728,473.216L727.764,473.239L727.798,473.261L727.832,473.283L727.868,473.304L727.902,473.324L727.937,473.345L727.973,473.365L728.01,473.385L728.045,473.404L728.082,473.423L728.12,473.442L728.156,473.46L728.193,473.477L728.231,473.495L728.27,473.512L728.309,473.529L728.348,473.545L728.387,473.561L728.428,473.577L728.469,473.592L728.51,473.607L728.552,473.622L728.594,473.636L728.637,473.65L728.68,473.663L728.724,473.676L728.769,473.69L728.815,473.702L728.861,473.714L728.908,473.726L728.955,473.737L729.003,473.748L729.052,473.758L729.103,473.769L729.154,473.779L729.205,473.788L729.257,473.796L729.311,473.805L729.366,473.813L729.42,473.82L729.474,473.827L729.533,473.834L729.59,473.84L729.648,473.845L729.709,473.85L729.768,473.854L729.83,473.858L729.893,473.861L729.956,473.864L730.021,473.866L730.086,473.867L730.153,473.868L730.221,473.868L730.29,473.867L730.359,473.866L730.43,473.864L730.502,473.861L730.574,473.858L730.648,473.854L730.724,473.849L730.801,473.843L730.878,473.837L730.956,473.829L731.035,473.821L731.117,473.812L731.198,473.803L731.199,473.802L731.214,473.773L731.231,473.739L731.278,473.643L731.321,473.55L731.364,473.453L731.407,473.354L731.449,473.251L731.491,473.148L731.531,473.043L731.571,472.937L731.61,472.831L731.647,472.727L731.684,472.624L731.718,472.525L731.81,472.25L731.899,471.979L731.986,471.708L732.07,471.437L732.151,471.166L732.231,470.896L732.307,470.626L732.381,470.356L732.453,470.087L732.523,469.818L732.59,469.549L732.654,469.281L732.717,469.013L732.777,468.746L732.834,468.479L732.89,468.213L732.943,467.946L732.994,467.681L733.043,467.416L733.089,467.152L733.133,466.888L733.175,466.625L733.215,466.362L733.253,466.1L733.288,465.839L733.322,465.578L733.353,465.318L733.382,465.059L733.409,464.8L733.434,464.542L733.457,464.285L733.478,464.029L733.497,463.774L733.514,463.519L733.529,463.265L733.543,463.012L733.554,462.76L733.563,462.509L733.57,462.259L733.576,462.009L733.579,461.761L733.581,461.514L733.581,461.267L733.579,461.022L733.575,460.778L733.57,460.535L733.562,460.293L733.553,460.051L733.543,459.812L733.53,459.573L733.516,459.336L733.5,459.1L733.483,458.865L733.463,458.631L733.443,458.399L733.42,458.168L733.397,457.938L733.371,457.71L733.344,457.483L733.315,457.257L733.285,457.034L733.254,456.81L733.221,456.589L733.187,456.37L733.151,456.152L733.113,455.935L733.075,455.72L733.035,455.507L732.993,455.295L732.951,455.084L732.907,454.876L732.862,454.67L732.815,454.464L732.767,454.261L732.719,454.06L732.668,453.86L732.617,453.662L732.565,453.466L732.511,453.272L732.457,453.08L732.401,452.89L732.344,452.702L732.286,452.515L732.228,452.331L732.168,452.149L732.108,451.969L732.046,451.791L731.983,451.615L731.92,451.441L731.856,451.27L731.791,451.1L731.726,450.933L731.659,450.769L731.592,450.606L731.524,450.446L731.456,450.288L731.387,450.133L731.317,449.98L731.247,449.83L731.176,449.681L731.105,449.536L731.034,449.393L730.961,449.252L730.889,449.115L730.817,448.98L730.744,448.847L730.671,448.717L730.597,448.59L730.524,448.466L730.45,448.344L730.377,448.226L730.303,448.11L730.23,447.997L730.156,447.886L730.083,447.779L730.01,447.675L729.937,447.574L729.865,447.475L729.793,447.38L729.775,447.357L729.683,447.397Z" style="fill:rgb(29,95,0);fill-opacity:0.351447;"/>
        </g>
    </g>
    <path d="M530.33,866.591C577.838,828.937 617.223,803.648 644.041,789.547C670.941,775.403 717.817,753.916 742.252,745.873C749.637,757.569 754.389,769.063 753.934,780.154C726.978,795.16 707.451,801.966 688.497,808.138C722.043,806.331 744.054,801.141 763.247,797.909C767.473,813.106 769.769,825.213 767.294,834.024C732.186,844.074 693.494,851.203 653.872,857.576C684.361,860.279 730.083,857.145 765.606,854.813C772.051,854.39 755.633,893.388 748.796,893.978C729.365,895.657 666.08,900.714 630.658,902.17C667.646,908.202 704.702,912.021 741.945,909.805C726.922,924.03 716.532,931.032 701.401,938.979L618.925,938.801C618.925,938.801 543.763,886.175 530.33,866.591Z" style="fill:rgb(125,120,7);"/>
    <path d="M957.759,741.983C980.232,762.679 996.628,786.686 1007.27,807.373L1083.25,834.368L1054.35,764.769L1115.32,767.711L1059.39,724.414L1128.53,655.008C1058.34,676.079 995.376,706.692 957.759,741.983Z" style="fill:rgb(125,120,7);"/>
    <path d="M226.556,844.203L187.587,911.062L289.06,862.355L226.556,844.203Z" style="fill:rgb(125,120,7);"/>
    <path d="M197.607,803L332.669,827.281L409.662,789.113L384.177,730.359L318.611,780.41L197.607,803Z" style="fill:rgb(150,176,0);"/>
    <g id="Layer5">
        <path d="M460.007,574.19C453.739,621.139 444.085,661.444 456.612,676.159C467.561,689.023 509.501,706.403 545.367,708.956C572.562,710.892 599.079,697.422 634.898,660.732C675.883,618.751 706.09,581.261 739.122,531.284C701.532,544.059 611.848,561.892 460.007,574.19Z" style="fill:rgb(86,28,0);"/>
    </g>
    <g>
        <g transform="matrix(0.955126,0,0,0.955126,36.6069,12.5607)">
            <path d="M720.95,282.175C710.06,310.732 725.861,340.5 752.138,347.529C783.499,355.919 801.809,355.467 816.346,325.852C825.412,307.382 826.89,290.482 805.893,269.805C780.72,245.016 735.624,243.696 720.95,282.175Z" style="fill:rgb(229,227,195);"/>
        </g>
        <g transform="matrix(0.96705,0,0,0.96705,19.8307,9.13803)">
            <path d="M491.731,244.8C481.586,272.656 493.961,299.595 525.747,301.493C575.762,304.479 594.62,269.201 571.638,236.284C552.916,209.471 502.676,214.751 491.731,244.8Z" style="fill:rgb(229,227,195);"/>
        </g>
        <path d="M575.648,250.604C572.533,243.716 561.017,247.177 556.099,256.232C548.175,270.82 547.352,267.678 536.747,274.102C537.229,283.965 540.355,296.541 553.203,294.44C565.979,292.351 587.774,277.414 575.648,250.604Z" style="fill:rgb(204,200,142);"/>
        <g transform="matrix(1.41018,0,0,1.24996,3.70973,-22.4217)">
            <path d="M573.455,243.694C569.455,238.25 557.467,229.391 556.03,245.755C554.849,259.2 544.967,264.82 537.39,267.735C537.281,278.467 540.546,293.137 553.494,294.664C565.709,296.105 588.354,263.968 573.455,243.694Z" style="fill:rgb(204,200,142);"/>
        </g>
        <path d="M523.928,249.276C522.436,254.398 520.179,259.524 521.178,263.399C522.177,267.274 527.951,268.928 532.037,270.12C539.48,272.292 548.56,263.65 551.412,256.834C554.503,249.446 550.211,244.161 541.41,242.118C534.922,240.611 525.47,243.982 523.928,249.276Z" style="fill:rgb(76,51,16);"/>
        <path d="M748.121,290.659C746.304,294.644 747.403,302.075 751.927,305.338C760.029,311.183 771.519,306.26 773.184,299.603C775.36,290.901 771.958,284.158 766.024,282.698C760.507,281.341 752.929,280.113 748.121,290.659Z" style="fill:rgb(76,51,16);"/>
    </g>
    <path d="M613.729,183.151C636.225,199.797 656.775,229.949 667.141,261.854C671.52,238.437 685.72,206.807 733.623,193.669C682.891,173.522 642.319,171.557 613.729,183.151Z" style="fill:url(#_Linear5);"/>
    <path d="M719.287,224.307C696.779,235.72 685.038,256.343 684.013,284.471C682.376,299.426 686.797,316.573 695.141,329.541C709.755,340.12 727.965,350.472 740.706,358.575C725.949,344.213 714.339,323.879 712.8,314.231C709.644,294.45 715.721,267.084 738.472,250.172C744.557,245.648 754.099,243.124 772.031,244.502L754.029,214.893C745.398,215.762 733.815,217.33 719.287,224.307Z" style="fill:rgb(150,176,0);"/>
    <path d="M305.145,527.048C292.548,515.621 292.052,455.55 306.27,438.84C319.31,423.513 357.203,418.968 423.379,405.761L476.785,313.829C460.635,292.95 451.727,266.37 455.408,240.014C460.222,205.539 481.7,185.789 514.564,178.511C529.921,175.111 555.448,176.773 569.061,184.449L541.249,210.126C517.246,210.041 500.433,213.691 488.905,232.605C463.451,274.367 496.439,300.666 508.262,303.879C501.704,312.756 497.669,318.48 486.486,331.543C518.768,332.416 544.243,339.498 571.028,346.186C530.239,345.154 496.303,353.865 464.418,374.608C494.092,373.323 536.541,383.367 556.863,393.41C520.679,387.819 477.154,389.906 454.147,400.222C466.053,403.559 487.404,411.452 498.908,417.691C470.379,415.164 461.713,419.316 439.374,428.511C407.866,430.844 346.977,437.033 326.942,447.673C315.556,453.719 307.429,502.578 305.145,527.048Z" style="fill:rgb(150,176,0);"/>
    <g transform="matrix(1,0,0,1,2,1)">
        <path d="M781.894,353.748C800.355,353.813 814.434,346.126 822.673,319.979C825.303,348.397 807.372,363.005 781.894,353.748Z" style="fill:rgb(150,176,0);"/>
    </g>
    <path d="M342.671,480.584C335.913,485.862 331.445,507.8 333.853,520.446C335.534,529.277 349.482,535.995 358.897,529.035C365.853,523.893 368.105,497.254 362.025,483.334C359.914,478.501 350.516,474.457 342.671,480.584Z" style="fill:rgb(22,44,0);"/>
    <path d="M391.233,487.194C384.347,495.451 383.939,525.724 389.515,535.178C392.782,540.718 409.911,541.106 416.142,531.991C421.463,524.207 414.727,504.605 410.129,497.079C406.974,491.915 397.368,479.838 391.233,487.194Z" style="fill:rgb(22,44,0);"/>
    <g>
        <path d="M313.296,553.411C317.678,574.703 323.365,582.625 329.731,596.984L333.778,555.877L313.296,553.411Z" style="fill:rgb(195,192,142);"/>
        <path d="M351.362,559.185C355.069,577.965 360.995,597.21 369.569,617.01C371.066,598.766 373.081,580.749 376.043,563.147L351.362,559.185Z" style="fill:rgb(195,192,142);"/>
        <g transform="matrix(0.996852,0,0,1.00209,2.70464,-2.90778)">
            <path d="M397.517,569.021C400.765,585.355 404.969,601.838 411.399,618.664L423.98,571.602C416.404,571.401 407.543,570.23 397.517,569.021Z" style="fill:rgb(195,192,142);"/>
        </g>
        <path d="M445.884,571.205C454.005,597.71 463.691,618.569 474.595,635.031C475.468,613.644 478.136,592.642 483.242,572.163C472.419,573.137 460.273,573.061 445.884,571.205Z" style="fill:rgb(195,192,142);"/>
        <path d="M499.75,570.524C509.31,590.879 520.021,610.359 531.939,628.922C532.399,608.968 533.851,588.428 536.945,566.921L499.75,570.524Z" style="fill:rgb(195,192,142);"/>
        <path d="M559.917,564.092C567.903,586.503 578.406,606.621 591.877,624.036C591.762,603.432 591.95,582.382 592.68,560.53L559.917,564.092Z" style="fill:rgb(195,192,142);"/>
        <path d="M629.059,555.437C634.312,573.154 641.599,588.767 650.59,602.619L657.018,550.779L629.059,555.437Z" style="fill:rgb(195,192,142);"/>
        <path d="M681.246,546L700.298,573.031L702.457,541.592L681.246,546Z" style="fill:rgb(195,192,142);"/>
        <path d="M667.923,630.869C667.196,617.851 668.56,603.654 670.752,588.989C678.356,600.979 684.31,610.056 690.465,616C702.254,627.384 675.903,651.636 667.923,630.869Z" style="fill:rgb(195,192,142);"/>
        <path d="M611.955,685.541C610.536,664.191 612.813,642.585 616.158,620.906C622.708,638.556 629.229,655.358 635.59,667.672C637.375,671.912 639.476,680.376 634.704,685.544C629.118,691.595 616.093,693.566 611.955,685.541Z" style="fill:rgb(195,192,142);"/>
        <path d="M560.535,708.618C559.379,687.899 562.801,662.901 567.173,637.015C575.685,661.466 584.082,685.378 590.224,698.634C597.486,715.647 562.794,727.849 560.535,708.618Z" style="fill:rgb(195,192,142);"/>
        <path d="M496.814,706.385C499.475,690.417 506.773,671.47 515.981,651.297C519.948,674.094 524.333,695.483 530.679,710.239C531.824,727.956 489.161,723.909 496.814,706.385Z" style="fill:rgb(195,192,142);"/>
        <path d="M453.142,689.588C457.678,675.692 462.708,664.867 467.955,655.38C472.196,672.631 475.835,687.051 478.22,695.578C470.817,710.644 449.548,701.402 453.142,689.588Z" style="fill:rgb(195,192,142);"/>
        <g transform="matrix(0.835064,0,0,0.835064,69.7081,99.9348)">
            <path d="M430.046,642.338C433.408,629.442 442.177,618.16 447.986,606.781C448.949,623.816 451.24,640.726 452.376,654.463C454.134,675.703 421.811,667.179 430.046,642.338Z" style="fill:rgb(195,192,142);"/>
        </g>
    </g>
    <g>
        <path d="M626.711,139.101L679.395,166.635C768.512,200.94 829.253,230.936 847.469,254.474L889.159,253.461L844.128,203.773L850.388,101.135L836.492,83.956L813.872,81.836L763.805,40.51L751.091,41.864L685.445,139.12L626.711,139.101Z" style="fill:rgb(171,104,30);"/>
        <path d="M718.487,101.153C717.83,101.242 691.211,141.182 691.211,141.182C743.678,158.086 792.984,179.625 839.586,205.13L843.784,152.349C818.207,126.972 752.232,96.621 718.487,101.153Z" style="fill:rgb(154,123,69);"/>
        <path d="M769.052,110.601C749.609,114.484 736.864,121.121 732.346,131.14C766.663,127.506 788.585,128.998 797.112,136.028C779.639,138.034 765.042,143.394 755.099,154.182L775.773,161.112L765.771,169.604L691.133,139.942L719.042,99.054L769.052,110.601Z" style="fill:rgb(173,150,110);"/>
        <path d="M719.651,99.799L771.763,110.87L819.141,93.364L764.052,48.469L754.297,49.804L719.651,99.799Z" style="fill:url(#_Linear6);"/>
        <path d="M686.609,169.854C752.878,197.539 816.234,220.939 844.471,250.844L877.227,247.677C860.095,229.226 851.571,217.256 838.634,203.617C819.747,193.339 799.342,182.984 765.796,169.511C793.559,191.674 809.705,205.791 813.15,214.727C773.726,198.512 741.239,184.643 686.609,169.854Z" style="fill:url(#_Linear7);"/>
    </g>
    <g transform="matrix(1,0,0,1,-0.763021,7.75)">
        <path d="M587.267,233.472C591.122,242.167 592.687,262.833 589.407,269.643L631.881,226.274C625.006,206.475 615.262,197.197 604.147,188.862L587.267,233.472Z" style="fill:rgb(22,44,0);fill-opacity:0.53791;"/>
    </g>
    <defs>
        <linearGradient id="_Linear1" x1="0" y1="0" x2="1" y2="0" gradientUnits="userSpaceOnUse" gradientTransform="matrix(58.0337,-239.365,239.365,58.0337,934.971,889.141)"><stop offset="0" style="stop-color:rgb(58,116,0);stop-opacity:1"/><stop offset="0.58" style="stop-color:rgb(47,117,22);stop-opacity:1"/><stop offset="0.8" style="stop-color:rgb(23,119,70);stop-opacity:1"/><stop offset="1" style="stop-color:rgb(0,121,118);stop-opacity:1"/></linearGradient>
        <linearGradient id="_Linear2" x1="0" y1="0" x2="1" y2="0" gradientUnits="userSpaceOnUse" gradientTransform="matrix(395.398,0,0,286.995,731.836,798.703)"><stop offset="0" style="stop-color:rgb(58,116,0);stop-opacity:1"/><stop offset="0.58" style="stop-color:rgb(47,117,22);stop-opacity:1"/><stop offset="0.8" style="stop-color:rgb(23,119,70);stop-opacity:1"/><stop offset="1" style="stop-color:rgb(0,121,118);stop-opacity:1"/></linearGradient>
        <linearGradient id="_Linear3" x1="0" y1="0" x2="1" y2="0" gradientUnits="userSpaceOnUse" gradientTransform="matrix(297.937,81.5521,-81.5521,297.937,529.408,409.701)"><stop offset="0" style="stop-color:rgb(70,122,0);stop-opacity:1"/><stop offset="0.55" style="stop-color:rgb(55,126,26);stop-opacity:1"/><stop offset="1" style="stop-color:rgb(0,142,123);stop-opacity:1"/></linearGradient>
        <linearGradient id="_Linear4" x1="0" y1="0" x2="1" y2="0" gradientUnits="userSpaceOnUse" gradientTransform="matrix(142.297,-99.0469,99.0469,142.297,785.515,661.482)"><stop offset="0" style="stop-color:rgb(73,128,0);stop-opacity:0.830784"/><stop offset="0.49" style="stop-color:rgb(35,145,88);stop-opacity:0.830784"/><stop offset="1" style="stop-color:rgb(0,161,168);stop-opacity:0.830784"/></linearGradient>
        <linearGradient id="_Linear5" x1="0" y1="0" x2="1" y2="0" gradientUnits="userSpaceOnUse" gradientTransform="matrix(66.0833,40.4323,-40.4323,66.0833,623.828,167.12)"><stop offset="0" style="stop-color:rgb(152,210,0);stop-opacity:1"/><stop offset="0.53" style="stop-color:rgb(69,117,0);stop-opacity:1"/><stop offset="1" style="stop-color:rgb(38,82,0);stop-opacity:1"/></linearGradient>
        <linearGradient id="_Linear6" x1="0" y1="0" x2="1" y2="0" gradientUnits="userSpaceOnUse" gradientTransform="matrix(99.4896,0,0,62.401,719.651,79.6691)"><stop offset="0" style="stop-color:rgb(129,63,13);stop-opacity:0.584314"/><stop offset="1" style="stop-color:rgb(119,65,12);stop-opacity:0.584314"/></linearGradient>
        <linearGradient id="_Linear7" x1="0" y1="0" x2="1" y2="0" gradientUnits="userSpaceOnUse" gradientTransform="matrix(201.232,0,0,85.2865,686.609,212.497)"><stop offset="0" style="stop-color:rgb(129,63,13);stop-opacity:0.588455"/><stop offset="1" style="stop-color:rgb(119,65,12);stop-opacity:0.588455"/></linearGradient>
    </defs>
</svg>
