<?xml version="1.0" standalone="no"?>
<!DOCTYPE svg PUBLIC "-//W3C//DTD SVG 20010904//EN"
 "http://www.w3.org/TR/2001/REC-SVG-20010904/DTD/svg10.dtd">
<svg version="1.0" xmlns="http://www.w3.org/2000/svg"
 width="700.000000pt" height="700.000000pt" viewBox="0 0 700.000000 700.000000"
 preserveAspectRatio="xMidYMid meet">
<metadata>
Created by potrace 1.11, written by Peter Selinger 2001-2013
</metadata>
<g transform="translate(0.000000,700.000000) scale(0.100000,-0.100000)"
fill="#000000" stroke="none">
<path d="M4130 6773 c-20 -4 -60 -56 -195 -256 -93 -139 -171 -257 -173 -264
-3 -9 -47 -13 -164 -15 l-161 -3 44 -24 c24 -12 79 -41 121 -63 43 -21 81 -44
84 -50 4 -7 2 -8 -5 -4 -36 23 -255 7 -336 -24 -31 -12 -88 -6 -139 15 -94 38
-280 49 -405 23 -269 -57 -432 -249 -415 -492 5 -77 34 -202 64 -271 l20 -47
-45 -84 -46 -83 -103 3 c-57 2 -107 6 -113 9 -5 3 -9 165 -9 406 l1 401 -341
0 -340 0 1 -377 c0 -208 -1 -384 -4 -391 -3 -11 -78 -12 -421 -7 -230 4 -427
4 -439 0 -21 -6 -21 -9 -21 -328 l0 -322 437 1 c241 0 440 -3 443 -7 4 -6 5
-1580 1 -1690 -1 -26 -22 -35 -131 -55 -8 -2 -105 -24 -215 -49 -110 -26 -207
-48 -215 -50 -8 -2 -69 -16 -135 -30 -66 -15 -125 -31 -132 -34 -7 -4 7 -16
35 -31 86 -46 297 -160 312 -170 8 -6 27 -15 43 -21 15 -6 27 -16 27 -23 0 -7
-45 -117 -101 -245 -55 -128 -99 -235 -97 -237 2 -2 40 8 83 22 201 64 360
113 362 110 2 -1 -20 -73 -48 -160 -28 -86 -49 -161 -47 -166 2 -5 23 3 48 19
25 16 81 51 124 79 44 28 82 49 85 47 3 -2 6 -154 5 -339 l-1 -336 556 5 c306
2 918 7 1361 11 443 3 934 7 1093 9 l287 2 0 -412 0 -411 363 1 c199 1 375 5
390 10 l29 8 -7 306 c-6 296 -8 433 -6 459 1 9 95 12 434 12 l432 0 0 322 c0
178 -3 325 -6 328 -4 3 -199 5 -433 4 -294 0 -426 3 -427 10 -1 12 2 151 6
286 2 47 4 140 5 208 1 67 5 122 10 122 4 0 66 -21 136 -46 71 -25 192 -68
268 -95 76 -27 141 -47 143 -45 4 4 -58 202 -118 377 -10 30 -19 58 -19 60 0
3 19 5 43 3 149 -8 337 -13 337 -8 0 5 -115 150 -130 164 -3 3 -17 21 -32 42
-15 20 -33 42 -40 50 -7 7 -38 45 -69 83 l-57 71 26 29 c26 32 146 167 172
195 130 140 170 190 153 191 -10 0 -187 2 -394 3 -207 2 -380 6 -386 9 -6 4
-9 28 -8 54 2 27 6 161 10 298 3 138 8 311 10 385 3 74 7 225 10 335 l5 200
29 25 c51 44 75 64 126 105 27 22 61 50 75 62 39 33 171 144 225 188 27 22 53
45 59 50 6 6 36 30 67 55 30 25 78 64 105 87 27 22 108 89 179 148 72 59 138
115 148 124 17 16 14 22 -59 112 -42 52 -79 95 -83 97 -6 2 -103 -77 -286
-233 -27 -24 -68 -58 -90 -76 -22 -19 -51 -44 -65 -56 -14 -12 -72 -61 -130
-109 -58 -49 -150 -127 -206 -174 -55 -47 -118 -100 -139 -118 l-39 -32 -245
6 c-135 3 -282 8 -326 9 -44 2 -117 3 -162 4 l-82 1 2 63 c2 149 -23 310 -66
416 l-25 61 97 1 c53 1 102 1 109 0 24 -3 11 18 -50 86 -153 168 -177 196
-174 202 2 3 7 62 11 131 4 69 9 148 10 175 2 28 7 93 10 145 l6 96 -37 47
c-20 26 -43 48 -50 48 -8 1 -23 3 -34 4 -11 1 -32 3 -47 4 -20 1 -70 36 -168
116 -77 63 -144 114 -150 113 -5 0 -21 -3 -35 -5z"/>
</g>
</svg>
